<?xml version="1.0" encoding="utf-8"?>
<!-- Generator: Adobe Illustrator 21.0.0, SVG Export Plug-In . SVG Version: 6.00 Build 0)  -->
<svg version="1.1" id="Layer_1" xmlns="http://www.w3.org/2000/svg" xmlns:xlink="http://www.w3.org/1999/xlink" x="0px" y="0px"
	 viewBox="0 0 864 864" style="enable-background:new 0 0 864 864;" xml:space="preserve">
<style type="text/css">
	.st0{fill:none;stroke:#FBFBFB;stroke-width:25.5159;stroke-miterlimit:10;}
</style>
<path class="st0" d="M434,606.4c-2.3-2.5-4.5-4.7-6.7-7c-47.3-50.1-94.5-100.2-141.8-150.2c-13.7-14.5-23.1-31.3-26.7-51
	c-5.2-27.7,0.4-53.2,17-76.1c12.6-17.3,29.2-28.8,49.9-34.4c11-3,22.2-4,33.7-3.4c13.2,0.7,25.7,3.7,37.6,9.4
	c9.7,4.7,18.3,10.9,25.7,18.7c3.7,3.9,7.4,7.9,11.3,12c0.7-0.6,1.2-1.2,1.8-1.7c5.4-5.5,10.5-11.3,16.3-16.3
	c13.4-11.5,29-18.4,46.4-21.3c8.3-1.4,16.7-1.8,25-1c20.5,2,38.9,9.3,54.5,22.8c17.6,15.2,28.3,34.5,31.8,57.4
	c4.8,32.2-4.4,60.4-26.6,84.1c-49.1,52.4-98.5,104.5-147.8,156.7C435,605.4,434.6,605.8,434,606.4z"/>
</svg>
