<?xml version="1.0" encoding="utf-8"?>
<!-- Generator: Adobe Illustrator 21.0.0, SVG Export Plug-In . SVG Version: 6.00 Build 0)  -->
<svg version="1.1" xmlns="http://www.w3.org/2000/svg" xmlns:xlink="http://www.w3.org/1999/xlink" x="0px" y="0px"
	 viewBox="0 0 1122 1122" style="enable-background:new 0 0 1122 1122;" xml:space="preserve">
<style type="text/css">
	.st0{fill:#FFFFFF;stroke:#272525;stroke-miterlimit:10;}
</style>
<g>
</g>
<g>
	<g>
		<path class="st0" d="M731.5,657.9l41-252.6H403l-16.6-95.7h-148v51.3h104.9l20.9,119.9l28.7,177.1H731.5z M730,450
			c-4,20-8,40-12,60c-99.3,1.3-198.7,2.7-298,4c-3.3-20.7-6.7-41.3-10-62C516.7,451.3,623.3,450.7,730,450z"/>
		<path class="st0" d="M435.5,678.4c-26.8,0-48.5,21.7-48.5,48.5c0,26.8,21.7,48.5,48.5,48.5c26.8,0,48.5-21.7,48.5-48.5
			C484.1,700.1,462.3,678.4,435.5,678.4z"/>
		<path class="st0" d="M686.7,678.4c-26.8,0-48.5,21.7-48.5,48.5c0,26.8,21.7,48.5,48.5,48.5c26.8,0,48.6-21.7,48.6-48.5
			C735.3,700.1,713.6,678.4,686.7,678.4z"/>
	</g>
</g>
<g id="Layer_3">
</g>
</svg>
